{
	"asset":{
		"generator":"Khronos glTF Blender I/O v4.5.47",
		"version":"2.0"
	},
	"scene":0,
	"scenes":[
		{
			"name":"Scene",
			"nodes":[
				0,
				1,
				2,
				3,
				4,
				5
			]
		}
	],
	"nodes":[
		{
			"mesh":0,
			"name":"ManDefault"
		},
		{
			"mesh":1,
			"name":"ManHair"
		},
		{
			"mesh":2,
			"name":"ManPants/Phone"
		},
		{
			"mesh":3,
			"name":"ManShirt"
		},
		{
			"mesh":4,
			"name":"ManShoes"
		},
		{
			"mesh":5,
			"name":"ManSkin"
		}
	],
	"materials":[
		{
			"doubleSided":true,
			"name":"default2",
			"pbrMetallicRoughness":{
				"baseColorFactor":[
					0.5,
					0.5,
					0.5,
					1
				],
				"metallicFactor":0,
				"roughnessFactor":0.8942628502845764
			}
		},
		{
			"doubleSided":true,
			"name":"Hair1",
			"pbrMetallicRoughness":{
				"baseColorFactor":[
					0.25999999046325684,
					0.15686699748039246,
					0.039000000804662704,
					1
				],
				"metallicFactor":0,
				"roughnessFactor":0.6000000238418579
			}
		},
		{
			"doubleSided":true,
			"name":"Wear_4",
			"pbrMetallicRoughness":{
				"baseColorFactor":[
					0.1740799993276596,
					0.17807699739933014,
					0.2720000147819519,
					1
				],
				"metallicFactor":0,
				"roughnessFactor":0.6000000238418579
			}
		},
		{
			"doubleSided":true,
			"name":"Wear1",
			"pbrMetallicRoughness":{
				"baseColorFactor":[
					0.8600000143051147,
					0.25668400526046753,
					0.20640000700950623,
					1
				],
				"metallicFactor":0,
				"roughnessFactor":0.6000000238418579
			}
		},
		{
			"doubleSided":true,
			"name":"Wear_3",
			"pbrMetallicRoughness":{
				"baseColorFactor":[
					0.7128900289535522,
					0.7217450141906738,
					0.8899999856948853,
					1
				],
				"metallicFactor":0,
				"roughnessFactor":0.6000000238418579
			}
		},
		{
			"doubleSided":true,
			"name":"Skin1",
			"pbrMetallicRoughness":{
				"baseColorFactor":[
					1,
					0.6790000200271606,
					0.7100620269775391,
					1
				],
				"metallicFactor":0,
				"roughnessFactor":0.6000000238418579
			}
		}
	],
	"meshes":[
		{
			"name":"Mesh_default2_0.003",
			"primitives":[
				{
					"attributes":{
						"POSITION":0,
						"NORMAL":1
					},
					"indices":2,
					"material":0
				}
			]
		},
		{
			"name":"Mesh_Hair1_0.003",
			"primitives":[
				{
					"attributes":{
						"POSITION":3,
						"NORMAL":4
					},
					"indices":5,
					"material":1
				}
			]
		},
		{
			"name":"Mesh_Wear_4_0.003",
			"primitives":[
				{
					"attributes":{
						"POSITION":6,
						"NORMAL":7
					},
					"indices":8,
					"material":2
				}
			]
		},
		{
			"name":"Mesh_Wear1_0.003",
			"primitives":[
				{
					"attributes":{
						"POSITION":9,
						"NORMAL":10
					},
					"indices":11,
					"material":3
				}
			]
		},
		{
			"name":"Mesh_Wear_3_0.003",
			"primitives":[
				{
					"attributes":{
						"POSITION":12,
						"NORMAL":13
					},
					"indices":14,
					"material":4
				}
			]
		},
		{
			"name":"Mesh_Skin1_0.003",
			"primitives":[
				{
					"attributes":{
						"POSITION":15,
						"NORMAL":16
					},
					"indices":17,
					"material":5
				}
			]
		}
	],
	"accessors":[
		{
			"bufferView":0,
			"componentType":5126,
			"count":9,
			"max":[
				1.6303390264511108,
				110.00438690185547,
				68.39189147949219
			],
			"min":[
				-20.937334060668945,
				71.92850494384766,
				47.84107208251953
			],
			"type":"VEC3"
		},
		{
			"bufferView":1,
			"componentType":5126,
			"count":9,
			"type":"VEC3"
		},
		{
			"bufferView":2,
			"componentType":5123,
			"count":9,
			"type":"SCALAR"
		},
		{
			"bufferView":3,
			"componentType":5126,
			"count":282,
			"max":[
				10.952622413635254,
				157.7200164794922,
				71.44088745117188
			],
			"min":[
				-6.807913303375244,
				137.82772827148438,
				50.612083435058594
			],
			"type":"VEC3"
		},
		{
			"bufferView":4,
			"componentType":5126,
			"count":282,
			"type":"VEC3"
		},
		{
			"bufferView":5,
			"componentType":5123,
			"count":282,
			"type":"SCALAR"
		},
		{
			"bufferView":6,
			"componentType":5126,
			"count":351,
			"max":[
				15.100707054138184,
				109.35623931884766,
				82.126953125
			],
			"min":[
				-21.546916961669922,
				5.298792839050293,
				38.662437438964844
			],
			"type":"VEC3"
		},
		{
			"bufferView":7,
			"componentType":5126,
			"count":351,
			"type":"VEC3"
		},
		{
			"bufferView":8,
			"componentType":5123,
			"count":363,
			"type":"SCALAR"
		},
		{
			"bufferView":9,
			"componentType":5126,
			"count":585,
			"max":[
				30.14035415649414,
				138.32005310058594,
				78.82376098632812
			],
			"min":[
				-21.792362213134766,
				74.00035095214844,
				38.662437438964844
			],
			"type":"VEC3"
		},
		{
			"bufferView":10,
			"componentType":5126,
			"count":585,
			"type":"VEC3"
		},
		{
			"bufferView":11,
			"componentType":5123,
			"count":585,
			"type":"SCALAR"
		},
		{
			"bufferView":12,
			"componentType":5126,
			"count":168,
			"max":[
				19.42548942565918,
				8.306377410888672,
				69.0399169921875
			],
			"min":[
				-25.064599990844727,
				-0.6110966801643372,
				41.87870407104492
			],
			"type":"VEC3"
		},
		{
			"bufferView":13,
			"componentType":5126,
			"count":168,
			"type":"VEC3"
		},
		{
			"bufferView":14,
			"componentType":5123,
			"count":168,
			"type":"SCALAR"
		},
		{
			"bufferView":15,
			"componentType":5126,
			"count":285,
			"max":[
				28.71202850341797,
				156.488037109375,
				79.80944061279297
			],
			"min":[
				-5.255366325378418,
				65.16372680664062,
				40.244510650634766
			],
			"type":"VEC3"
		},
		{
			"bufferView":16,
			"componentType":5126,
			"count":285,
			"type":"VEC3"
		},
		{
			"bufferView":17,
			"componentType":5123,
			"count":285,
			"type":"SCALAR"
		}
	],
	"bufferViews":[
		{
			"buffer":0,
			"byteLength":108,
			"byteOffset":0,
			"target":34962
		},
		{
			"buffer":0,
			"byteLength":108,
			"byteOffset":108,
			"target":34962
		},
		{
			"buffer":0,
			"byteLength":18,
			"byteOffset":216,
			"target":34963
		},
		{
			"buffer":0,
			"byteLength":3384,
			"byteOffset":236,
			"target":34962
		},
		{
			"buffer":0,
			"byteLength":3384,
			"byteOffset":3620,
			"target":34962
		},
		{
			"buffer":0,
			"byteLength":564,
			"byteOffset":7004,
			"target":34963
		},
		{
			"buffer":0,
			"byteLength":4212,
			"byteOffset":7568,
			"target":34962
		},
		{
			"buffer":0,
			"byteLength":4212,
			"byteOffset":11780,
			"target":34962
		},
		{
			"buffer":0,
			"byteLength":726,
			"byteOffset":15992,
			"target":34963
		},
		{
			"buffer":0,
			"byteLength":7020,
			"byteOffset":16720,
			"target":34962
		},
		{
			"buffer":0,
			"byteLength":7020,
			"byteOffset":23740,
			"target":34962
		},
		{
			"buffer":0,
			"byteLength":1170,
			"byteOffset":30760,
			"target":34963
		},
		{
			"buffer":0,
			"byteLength":2016,
			"byteOffset":31932,
			"target":34962
		},
		{
			"buffer":0,
			"byteLength":2016,
			"byteOffset":33948,
			"target":34962
		},
		{
			"buffer":0,
			"byteLength":336,
			"byteOffset":35964,
			"target":34963
		},
		{
			"buffer":0,
			"byteLength":3420,
			"byteOffset":36300,
			"target":34962
		},
		{
			"buffer":0,
			"byteLength":3420,
			"byteOffset":39720,
			"target":34962
		},
		{
			"buffer":0,
			"byteLength":570,
			"byteOffset":43140,
			"target":34963
		}
	],
	"buffers":[
		{
			"byteLength":43712,
			"uri":"man.bin"
		}
	]
}
