{
	"asset":{
		"generator":"Khronos glTF Blender I/O v4.5.47",
		"version":"2.0"
	},
	"scene":0,
	"scenes":[
		{
			"name":"Scene",
			"nodes":[
				0,
				1,
				2,
				3,
				4
			]
		}
	],
	"nodes":[
		{
			"mesh":0,
			"name":"OldManDefault"
		},
		{
			"mesh":1,
			"name":"OldManHair"
		},
		{
			"mesh":2,
			"name":"OldManPants"
		},
		{
			"mesh":3,
			"name":"OldManShirt"
		},
		{
			"mesh":4,
			"name":"OldManSkin"
		}
	],
	"materials":[
		{
			"doubleSided":true,
			"name":"default2",
			"pbrMetallicRoughness":{
				"baseColorFactor":[
					0.5,
					0.5,
					0.5,
					1
				],
				"metallicFactor":0,
				"roughnessFactor":0.8942628502845764
			}
		},
		{
			"doubleSided":true,
			"name":"Hair1",
			"pbrMetallicRoughness":{
				"baseColorFactor":[
					0.25999999046325684,
					0.15686699748039246,
					0.039000000804662704,
					1
				],
				"metallicFactor":0,
				"roughnessFactor":0.6000000238418579
			}
		},
		{
			"doubleSided":true,
			"name":"Wear_3",
			"pbrMetallicRoughness":{
				"baseColorFactor":[
					0.7128900289535522,
					0.7217450141906738,
					0.8899999856948853,
					1
				],
				"metallicFactor":0,
				"roughnessFactor":0.6000000238418579
			}
		},
		{
			"doubleSided":true,
			"name":"Wear1",
			"pbrMetallicRoughness":{
				"baseColorFactor":[
					0.8600000143051147,
					0.25668400526046753,
					0.20640000700950623,
					1
				],
				"metallicFactor":0,
				"roughnessFactor":0.6000000238418579
			}
		},
		{
			"doubleSided":true,
			"name":"Skin1",
			"pbrMetallicRoughness":{
				"baseColorFactor":[
					1,
					0.6790000200271606,
					0.7100620269775391,
					1
				],
				"metallicFactor":0,
				"roughnessFactor":0.6000000238418579
			}
		}
	],
	"meshes":[
		{
			"name":"Mesh_default2_0.004",
			"primitives":[
				{
					"attributes":{
						"POSITION":0,
						"NORMAL":1
					},
					"indices":2,
					"material":0
				}
			]
		},
		{
			"name":"Mesh_Hair1_0.004",
			"primitives":[
				{
					"attributes":{
						"POSITION":3,
						"NORMAL":4
					},
					"indices":5,
					"material":1
				}
			]
		},
		{
			"name":"Mesh_Wear_3_0.004",
			"primitives":[
				{
					"attributes":{
						"POSITION":6,
						"NORMAL":7
					},
					"indices":8,
					"material":2
				}
			]
		},
		{
			"name":"Mesh_Wear1_0",
			"primitives":[
				{
					"attributes":{
						"POSITION":9,
						"NORMAL":10
					},
					"indices":11,
					"material":3
				}
			]
		},
		{
			"name":"Mesh_Skin1_0.004",
			"primitives":[
				{
					"attributes":{
						"POSITION":12,
						"NORMAL":13
					},
					"indices":14,
					"material":4
				}
			]
		}
	],
	"accessors":[
		{
			"bufferView":0,
			"componentType":5126,
			"count":9,
			"max":[
				154.19174194335938,
				106.266357421875,
				71.51668548583984
			],
			"min":[
				123.579345703125,
				61.471946716308594,
				49.19314956665039
			],
			"type":"VEC3"
		},
		{
			"bufferView":1,
			"componentType":5126,
			"count":9,
			"type":"VEC3"
		},
		{
			"bufferView":2,
			"componentType":5123,
			"count":9,
			"type":"SCALAR"
		},
		{
			"bufferView":3,
			"componentType":5126,
			"count":450,
			"max":[
				173.38079833984375,
				151.01490783691406,
				70.18034362792969
			],
			"min":[
				131.53988647460938,
				-0.02564871497452259,
				36.76612091064453
			],
			"type":"VEC3"
		},
		{
			"bufferView":4,
			"componentType":5126,
			"count":450,
			"type":"VEC3"
		},
		{
			"bufferView":5,
			"componentType":5123,
			"count":450,
			"type":"SCALAR"
		},
		{
			"bufferView":6,
			"componentType":5126,
			"count":327,
			"max":[
				177.91836547851562,
				70.56019592285156,
				71.51668548583984
			],
			"min":[
				130.9024658203125,
				5.080359935760498,
				40.166404724121094
			],
			"type":"VEC3"
		},
		{
			"bufferView":7,
			"componentType":5126,
			"count":327,
			"type":"VEC3"
		},
		{
			"bufferView":8,
			"componentType":5123,
			"count":327,
			"type":"SCALAR"
		},
		{
			"bufferView":9,
			"componentType":5126,
			"count":585,
			"max":[
				189.0554962158203,
				128.4464111328125,
				71.7691421508789
			],
			"min":[
				110.53124237060547,
				64.01318359375,
				39.95513153076172
			],
			"type":"VEC3"
		},
		{
			"bufferView":10,
			"componentType":5126,
			"count":585,
			"type":"VEC3"
		},
		{
			"bufferView":11,
			"componentType":5123,
			"count":585,
			"type":"SCALAR"
		},
		{
			"bufferView":12,
			"componentType":5126,
			"count":285,
			"max":[
				186.3600311279297,
				149.77536010742188,
				80.43617248535156
			],
			"min":[
				102.41658020019531,
				59.454994201660156,
				39.58784866333008
			],
			"type":"VEC3"
		},
		{
			"bufferView":13,
			"componentType":5126,
			"count":285,
			"type":"VEC3"
		},
		{
			"bufferView":14,
			"componentType":5123,
			"count":285,
			"type":"SCALAR"
		}
	],
	"bufferViews":[
		{
			"buffer":0,
			"byteLength":108,
			"byteOffset":0,
			"target":34962
		},
		{
			"buffer":0,
			"byteLength":108,
			"byteOffset":108,
			"target":34962
		},
		{
			"buffer":0,
			"byteLength":18,
			"byteOffset":216,
			"target":34963
		},
		{
			"buffer":0,
			"byteLength":5400,
			"byteOffset":236,
			"target":34962
		},
		{
			"buffer":0,
			"byteLength":5400,
			"byteOffset":5636,
			"target":34962
		},
		{
			"buffer":0,
			"byteLength":900,
			"byteOffset":11036,
			"target":34963
		},
		{
			"buffer":0,
			"byteLength":3924,
			"byteOffset":11936,
			"target":34962
		},
		{
			"buffer":0,
			"byteLength":3924,
			"byteOffset":15860,
			"target":34962
		},
		{
			"buffer":0,
			"byteLength":654,
			"byteOffset":19784,
			"target":34963
		},
		{
			"buffer":0,
			"byteLength":7020,
			"byteOffset":20440,
			"target":34962
		},
		{
			"buffer":0,
			"byteLength":7020,
			"byteOffset":27460,
			"target":34962
		},
		{
			"buffer":0,
			"byteLength":1170,
			"byteOffset":34480,
			"target":34963
		},
		{
			"buffer":0,
			"byteLength":3420,
			"byteOffset":35652,
			"target":34962
		},
		{
			"buffer":0,
			"byteLength":3420,
			"byteOffset":39072,
			"target":34962
		},
		{
			"buffer":0,
			"byteLength":570,
			"byteOffset":42492,
			"target":34963
		}
	],
	"buffers":[
		{
			"byteLength":43064,
			"uri":"OldMan.bin"
		}
	]
}
