{
	"asset":{
		"generator":"Khronos glTF Blender I/O v4.5.47",
		"version":"2.0"
	},
	"scene":0,
	"scenes":[
		{
			"name":"Scene",
			"nodes":[
				0,
				1,
				2,
				3,
				4,
				5
			]
		}
	],
	"nodes":[
		{
			"mesh":0,
			"name":"BoyDefault"
		},
		{
			"mesh":1,
			"name":"BoyHair"
		},
		{
			"mesh":2,
			"name":"BoyPants"
		},
		{
			"mesh":3,
			"name":"BoyShoes"
		},
		{
			"mesh":4,
			"name":"BoySkin"
		},
		{
			"mesh":5,
			"name":"BoyWear"
		}
	],
	"materials":[
		{
			"doubleSided":true,
			"name":"default2",
			"pbrMetallicRoughness":{
				"baseColorFactor":[
					0.5,
					0.5,
					0.5,
					1
				],
				"metallicFactor":0,
				"roughnessFactor":0.8942628502845764
			}
		},
		{
			"doubleSided":true,
			"name":"Hair1",
			"pbrMetallicRoughness":{
				"baseColorFactor":[
					0.25999999046325684,
					0.15686699748039246,
					0.039000000804662704,
					1
				],
				"metallicFactor":0,
				"roughnessFactor":0.6000000238418579
			}
		},
		{
			"doubleSided":true,
			"name":"Wear_4",
			"pbrMetallicRoughness":{
				"baseColorFactor":[
					0.1740799993276596,
					0.17807699739933014,
					0.2720000147819519,
					1
				],
				"metallicFactor":0,
				"roughnessFactor":0.6000000238418579
			}
		},
		{
			"doubleSided":true,
			"name":"Wear_3",
			"pbrMetallicRoughness":{
				"baseColorFactor":[
					0.7128900289535522,
					0.7217450141906738,
					0.8899999856948853,
					1
				],
				"metallicFactor":0,
				"roughnessFactor":0.6000000238418579
			}
		},
		{
			"doubleSided":true,
			"name":"Skin1",
			"pbrMetallicRoughness":{
				"baseColorFactor":[
					1,
					0.6790000200271606,
					0.7100620269775391,
					1
				],
				"metallicFactor":0,
				"roughnessFactor":0.6000000238418579
			}
		},
		{
			"doubleSided":true,
			"name":"Wear1",
			"pbrMetallicRoughness":{
				"baseColorFactor":[
					0.8600000143051147,
					0.25668400526046753,
					0.20640000700950623,
					1
				],
				"metallicFactor":0,
				"roughnessFactor":0.6000000238418579
			}
		}
	],
	"meshes":[
		{
			"name":"Mesh_default2_0.001",
			"primitives":[
				{
					"attributes":{
						"POSITION":0,
						"NORMAL":1
					},
					"indices":2,
					"material":0
				}
			]
		},
		{
			"name":"Mesh_Hair1_0.001",
			"primitives":[
				{
					"attributes":{
						"POSITION":3,
						"NORMAL":4
					},
					"indices":5,
					"material":1
				}
			]
		},
		{
			"name":"Mesh_Wear_4_0.001",
			"primitives":[
				{
					"attributes":{
						"POSITION":6,
						"NORMAL":7
					},
					"indices":8,
					"material":2
				}
			]
		},
		{
			"name":"Mesh_Wear_3_0.001",
			"primitives":[
				{
					"attributes":{
						"POSITION":9,
						"NORMAL":10
					},
					"indices":11,
					"material":3
				}
			]
		},
		{
			"name":"Mesh_Skin1_0.001",
			"primitives":[
				{
					"attributes":{
						"POSITION":12,
						"NORMAL":13
					},
					"indices":14,
					"material":4
				}
			]
		},
		{
			"name":"Mesh_Wear1_0.001",
			"primitives":[
				{
					"attributes":{
						"POSITION":15,
						"NORMAL":16
					},
					"indices":17,
					"material":5
				}
			]
		}
	],
	"accessors":[
		{
			"bufferView":0,
			"componentType":5126,
			"count":12,
			"max":[
				-150.5054168701172,
				66.17607879638672,
				58.120330810546875
			],
			"min":[
				-165.061279296875,
				42.539005279541016,
				47.040863037109375
			],
			"type":"VEC3"
		},
		{
			"bufferView":1,
			"componentType":5126,
			"count":12,
			"type":"VEC3"
		},
		{
			"bufferView":2,
			"componentType":5123,
			"count":12,
			"type":"SCALAR"
		},
		{
			"bufferView":3,
			"componentType":5126,
			"count":282,
			"max":[
				-144.863037109375,
				94.74264526367188,
				50.66206359863281
			],
			"min":[
				-160.8452911376953,
				75.55198669433594,
				35.117889404296875
			],
			"type":"VEC3"
		},
		{
			"bufferView":4,
			"componentType":5126,
			"count":282,
			"type":"VEC3"
		},
		{
			"bufferView":5,
			"componentType":5123,
			"count":282,
			"type":"SCALAR"
		},
		{
			"bufferView":6,
			"componentType":5126,
			"count":327,
			"max":[
				-143.4203643798828,
				46.754642486572266,
				54.859413146972656
			],
			"min":[
				-161.81312561035156,
				3.9135870933532715,
				42.80742645263672
			],
			"type":"VEC3"
		},
		{
			"bufferView":7,
			"componentType":5126,
			"count":327,
			"type":"VEC3"
		},
		{
			"bufferView":8,
			"componentType":5123,
			"count":327,
			"type":"SCALAR"
		},
		{
			"bufferView":9,
			"componentType":5126,
			"count":168,
			"max":[
				-140.64356994628906,
				5.209442138671875,
				60.33256530761719
			],
			"min":[
				-164.4270477294922,
				0.3570999801158905,
				45.73905944824219
			],
			"type":"VEC3"
		},
		{
			"bufferView":10,
			"componentType":5126,
			"count":168,
			"type":"VEC3"
		},
		{
			"bufferView":11,
			"componentType":5123,
			"count":168,
			"type":"SCALAR"
		},
		{
			"bufferView":12,
			"componentType":5126,
			"count":285,
			"max":[
				-142.71043395996094,
				94.60443878173828,
				80.29985809326172
			],
			"min":[
				-158.60882568359375,
				39.79875564575195,
				36.0380973815918
			],
			"type":"VEC3"
		},
		{
			"bufferView":13,
			"componentType":5126,
			"count":285,
			"type":"VEC3"
		},
		{
			"bufferView":14,
			"componentType":5123,
			"count":285,
			"type":"SCALAR"
		},
		{
			"bufferView":15,
			"componentType":5126,
			"count":594,
			"max":[
				-135.2764129638672,
				76.36309051513672,
				72.3448486328125
			],
			"min":[
				-166.51222229003906,
				43.76960754394531,
				40.254371643066406
			],
			"type":"VEC3"
		},
		{
			"bufferView":16,
			"componentType":5126,
			"count":594,
			"type":"VEC3"
		},
		{
			"bufferView":17,
			"componentType":5123,
			"count":594,
			"type":"SCALAR"
		}
	],
	"bufferViews":[
		{
			"buffer":0,
			"byteLength":144,
			"byteOffset":0,
			"target":34962
		},
		{
			"buffer":0,
			"byteLength":144,
			"byteOffset":144,
			"target":34962
		},
		{
			"buffer":0,
			"byteLength":24,
			"byteOffset":288,
			"target":34963
		},
		{
			"buffer":0,
			"byteLength":3384,
			"byteOffset":312,
			"target":34962
		},
		{
			"buffer":0,
			"byteLength":3384,
			"byteOffset":3696,
			"target":34962
		},
		{
			"buffer":0,
			"byteLength":564,
			"byteOffset":7080,
			"target":34963
		},
		{
			"buffer":0,
			"byteLength":3924,
			"byteOffset":7644,
			"target":34962
		},
		{
			"buffer":0,
			"byteLength":3924,
			"byteOffset":11568,
			"target":34962
		},
		{
			"buffer":0,
			"byteLength":654,
			"byteOffset":15492,
			"target":34963
		},
		{
			"buffer":0,
			"byteLength":2016,
			"byteOffset":16148,
			"target":34962
		},
		{
			"buffer":0,
			"byteLength":2016,
			"byteOffset":18164,
			"target":34962
		},
		{
			"buffer":0,
			"byteLength":336,
			"byteOffset":20180,
			"target":34963
		},
		{
			"buffer":0,
			"byteLength":3420,
			"byteOffset":20516,
			"target":34962
		},
		{
			"buffer":0,
			"byteLength":3420,
			"byteOffset":23936,
			"target":34962
		},
		{
			"buffer":0,
			"byteLength":570,
			"byteOffset":27356,
			"target":34963
		},
		{
			"buffer":0,
			"byteLength":7128,
			"byteOffset":27928,
			"target":34962
		},
		{
			"buffer":0,
			"byteLength":7128,
			"byteOffset":35056,
			"target":34962
		},
		{
			"buffer":0,
			"byteLength":1188,
			"byteOffset":42184,
			"target":34963
		}
	],
	"buffers":[
		{
			"byteLength":43372,
			"uri":"boy.bin"
		}
	]
}
