{
	"asset":{
		"generator":"Khronos glTF Blender I/O v4.5.47",
		"version":"2.0"
	},
	"scene":0,
	"scenes":[
		{
			"name":"Scene",
			"nodes":[
				0,
				1,
				2,
				3,
				4,
				5
			]
		}
	],
	"nodes":[
		{
			"mesh":0,
			"name":"GirlDefault"
		},
		{
			"mesh":1,
			"name":"GirlHair"
		},
		{
			"mesh":2,
			"name":"GirlPants"
		},
		{
			"mesh":3,
			"name":"GirlShoes"
		},
		{
			"mesh":4,
			"name":"GirlSkin"
		},
		{
			"mesh":5,
			"name":"GirlWear"
		}
	],
	"materials":[
		{
			"doubleSided":true,
			"name":"default2",
			"pbrMetallicRoughness":{
				"baseColorFactor":[
					0.5,
					0.5,
					0.5,
					1
				],
				"metallicFactor":0,
				"roughnessFactor":0.8942628502845764
			}
		},
		{
			"doubleSided":true,
			"name":"Hair1",
			"pbrMetallicRoughness":{
				"baseColorFactor":[
					0.25999999046325684,
					0.15686699748039246,
					0.039000000804662704,
					1
				],
				"metallicFactor":0,
				"roughnessFactor":0.6000000238418579
			}
		},
		{
			"doubleSided":true,
			"name":"Wear_4",
			"pbrMetallicRoughness":{
				"baseColorFactor":[
					0.1740799993276596,
					0.17807699739933014,
					0.2720000147819519,
					1
				],
				"metallicFactor":0,
				"roughnessFactor":0.6000000238418579
			}
		},
		{
			"doubleSided":true,
			"name":"Wear_3",
			"pbrMetallicRoughness":{
				"baseColorFactor":[
					0.7128900289535522,
					0.7217450141906738,
					0.8899999856948853,
					1
				],
				"metallicFactor":0,
				"roughnessFactor":0.6000000238418579
			}
		},
		{
			"doubleSided":true,
			"name":"Skin1",
			"pbrMetallicRoughness":{
				"baseColorFactor":[
					1,
					0.6790000200271606,
					0.7100620269775391,
					1
				],
				"metallicFactor":0,
				"roughnessFactor":0.6000000238418579
			}
		},
		{
			"doubleSided":true,
			"name":"Wear1",
			"pbrMetallicRoughness":{
				"baseColorFactor":[
					0.8600000143051147,
					0.25668400526046753,
					0.20640000700950623,
					1
				],
				"metallicFactor":0,
				"roughnessFactor":0.6000000238418579
			}
		}
	],
	"meshes":[
		{
			"name":"Mesh_default2_0.002",
			"primitives":[
				{
					"attributes":{
						"POSITION":0,
						"NORMAL":1
					},
					"indices":2,
					"material":0
				}
			]
		},
		{
			"name":"Mesh_Hair1_0.002",
			"primitives":[
				{
					"attributes":{
						"POSITION":3,
						"NORMAL":4
					},
					"indices":5,
					"material":1
				}
			]
		},
		{
			"name":"Mesh_Wear_4_0.002",
			"primitives":[
				{
					"attributes":{
						"POSITION":6,
						"NORMAL":7
					},
					"indices":8,
					"material":2
				}
			]
		},
		{
			"name":"Mesh_Wear_3_0.002",
			"primitives":[
				{
					"attributes":{
						"POSITION":9,
						"NORMAL":10
					},
					"indices":11,
					"material":3
				}
			]
		},
		{
			"name":"Mesh_Skin1_0.002",
			"primitives":[
				{
					"attributes":{
						"POSITION":12,
						"NORMAL":13
					},
					"indices":14,
					"material":4
				}
			]
		},
		{
			"name":"Mesh_Wear1_0.002",
			"primitives":[
				{
					"attributes":{
						"POSITION":15,
						"NORMAL":16
					},
					"indices":17,
					"material":5
				}
			]
		}
	],
	"accessors":[
		{
			"bufferView":0,
			"componentType":5126,
			"count":12,
			"max":[
				-171.8680877685547,
				79.58269500732422,
				-64.80033111572266
			],
			"min":[
				-189.01197814941406,
				41.186954498291016,
				-71.30946350097656
			],
			"type":"VEC3"
		},
		{
			"bufferView":1,
			"componentType":5126,
			"count":12,
			"type":"VEC3"
		},
		{
			"bufferView":2,
			"componentType":5123,
			"count":12,
			"type":"SCALAR"
		},
		{
			"bufferView":3,
			"componentType":5126,
			"count":282,
			"max":[
				-162.5198974609375,
				95.0250015258789,
				-65.43961334228516
			],
			"min":[
				-180.30441284179688,
				56.028202056884766,
				-80.5533218383789
			],
			"type":"VEC3"
		},
		{
			"bufferView":4,
			"componentType":5126,
			"count":282,
			"type":"VEC3"
		},
		{
			"bufferView":5,
			"componentType":5123,
			"count":282,
			"type":"SCALAR"
		},
		{
			"bufferView":6,
			"componentType":5126,
			"count":327,
			"max":[
				-163.24913024902344,
				45.077693939208984,
				-64.80033111572266
			],
			"min":[
				-180.40304565429688,
				3.6628668308258057,
				-78.51886749267578
			],
			"type":"VEC3"
		},
		{
			"bufferView":7,
			"componentType":5126,
			"count":327,
			"type":"VEC3"
		},
		{
			"bufferView":8,
			"componentType":5123,
			"count":327,
			"type":"SCALAR"
		},
		{
			"bufferView":9,
			"componentType":5126,
			"count":168,
			"max":[
				-164.33660888671875,
				4.853281021118164,
				-58.955841064453125
			],
			"min":[
				-179.81227111816406,
				0.49399083852767944,
				-73.0966796875
			],
			"type":"VEC3"
		},
		{
			"bufferView":10,
			"componentType":5126,
			"count":168,
			"type":"VEC3"
		},
		{
			"bufferView":11,
			"componentType":5123,
			"count":168,
			"type":"SCALAR"
		},
		{
			"bufferView":12,
			"componentType":5126,
			"count":285,
			"max":[
				-155.4344482421875,
				101.31585693359375,
				-61.35683059692383
			],
			"min":[
				-195.92857360839844,
				36.771942138671875,
				-79.06330108642578
			],
			"type":"VEC3"
		},
		{
			"bufferView":13,
			"componentType":5126,
			"count":285,
			"type":"VEC3"
		},
		{
			"bufferView":14,
			"componentType":5123,
			"count":285,
			"type":"SCALAR"
		},
		{
			"bufferView":15,
			"componentType":5126,
			"count":594,
			"max":[
				-154.8993682861328,
				93.0981216430664,
				-63.011566162109375
			],
			"min":[
				-194.02716064453125,
				42.39432144165039,
				-78.51886749267578
			],
			"type":"VEC3"
		},
		{
			"bufferView":16,
			"componentType":5126,
			"count":594,
			"type":"VEC3"
		},
		{
			"bufferView":17,
			"componentType":5123,
			"count":594,
			"type":"SCALAR"
		}
	],
	"bufferViews":[
		{
			"buffer":0,
			"byteLength":144,
			"byteOffset":0,
			"target":34962
		},
		{
			"buffer":0,
			"byteLength":144,
			"byteOffset":144,
			"target":34962
		},
		{
			"buffer":0,
			"byteLength":24,
			"byteOffset":288,
			"target":34963
		},
		{
			"buffer":0,
			"byteLength":3384,
			"byteOffset":312,
			"target":34962
		},
		{
			"buffer":0,
			"byteLength":3384,
			"byteOffset":3696,
			"target":34962
		},
		{
			"buffer":0,
			"byteLength":564,
			"byteOffset":7080,
			"target":34963
		},
		{
			"buffer":0,
			"byteLength":3924,
			"byteOffset":7644,
			"target":34962
		},
		{
			"buffer":0,
			"byteLength":3924,
			"byteOffset":11568,
			"target":34962
		},
		{
			"buffer":0,
			"byteLength":654,
			"byteOffset":15492,
			"target":34963
		},
		{
			"buffer":0,
			"byteLength":2016,
			"byteOffset":16148,
			"target":34962
		},
		{
			"buffer":0,
			"byteLength":2016,
			"byteOffset":18164,
			"target":34962
		},
		{
			"buffer":0,
			"byteLength":336,
			"byteOffset":20180,
			"target":34963
		},
		{
			"buffer":0,
			"byteLength":3420,
			"byteOffset":20516,
			"target":34962
		},
		{
			"buffer":0,
			"byteLength":3420,
			"byteOffset":23936,
			"target":34962
		},
		{
			"buffer":0,
			"byteLength":570,
			"byteOffset":27356,
			"target":34963
		},
		{
			"buffer":0,
			"byteLength":7128,
			"byteOffset":27928,
			"target":34962
		},
		{
			"buffer":0,
			"byteLength":7128,
			"byteOffset":35056,
			"target":34962
		},
		{
			"buffer":0,
			"byteLength":1188,
			"byteOffset":42184,
			"target":34963
		}
	],
	"buffers":[
		{
			"byteLength":43372,
			"uri":"girl.bin"
		}
	]
}
