{
	"asset":{
		"generator":"Khronos glTF Blender I/O v4.5.47",
		"version":"2.0"
	},
	"scene":0,
	"scenes":[
		{
			"name":"Scene",
			"nodes":[
				0,
				1,
				2,
				3,
				4,
				5,
				6
			]
		}
	],
	"nodes":[
		{
			"mesh":0,
			"name":"Mesh_default2_0"
		},
		{
			"name":"Mesh_Hair1_0"
		},
		{
			"mesh":1,
			"name":"Mesh_Hair1_0.001"
		},
		{
			"mesh":2,
			"name":"Mesh_Skin1_0"
		},
		{
			"mesh":3,
			"name":"Mesh_Wear_3_0"
		},
		{
			"mesh":4,
			"name":"Mesh_Wear_4_0"
		},
		{
			"mesh":5,
			"name":"Mesh_Wear_6_0"
		}
	],
	"materials":[
		{
			"doubleSided":true,
			"name":"default2",
			"pbrMetallicRoughness":{
				"baseColorFactor":[
					0.5,
					0.5,
					0.5,
					1
				],
				"metallicFactor":0,
				"roughnessFactor":0.8942628502845764
			}
		},
		{
			"doubleSided":true,
			"name":"Hair1",
			"pbrMetallicRoughness":{
				"baseColorFactor":[
					0.25999999046325684,
					0.15686699748039246,
					0.039000000804662704,
					1
				],
				"metallicFactor":0,
				"roughnessFactor":0.6000000238418579
			}
		},
		{
			"doubleSided":true,
			"name":"Skin1",
			"pbrMetallicRoughness":{
				"baseColorFactor":[
					1,
					0.6790000200271606,
					0.7100620269775391,
					1
				],
				"metallicFactor":0,
				"roughnessFactor":0.6000000238418579
			}
		},
		{
			"doubleSided":true,
			"name":"Wear_3",
			"pbrMetallicRoughness":{
				"baseColorFactor":[
					0.7128900289535522,
					0.7217450141906738,
					0.8899999856948853,
					1
				],
				"metallicFactor":0,
				"roughnessFactor":0.6000000238418579
			}
		},
		{
			"doubleSided":true,
			"name":"Wear_4",
			"pbrMetallicRoughness":{
				"baseColorFactor":[
					0.1740799993276596,
					0.17807699739933014,
					0.2720000147819519,
					1
				],
				"metallicFactor":0,
				"roughnessFactor":0.6000000238418579
			}
		},
		{
			"doubleSided":true,
			"name":"Wear_6",
			"pbrMetallicRoughness":{
				"baseColorFactor":[
					0.4039219915866852,
					0.7176470160484314,
					0.764706015586853,
					1
				],
				"metallicFactor":0,
				"roughnessFactor":0.6000000238418579
			}
		}
	],
	"meshes":[
		{
			"name":"Mesh_default2_0",
			"primitives":[
				{
					"attributes":{
						"POSITION":0,
						"NORMAL":1
					},
					"indices":2,
					"material":0
				}
			]
		},
		{
			"name":"Mesh_Hair1_0.006",
			"primitives":[
				{
					"attributes":{
						"POSITION":3,
						"NORMAL":4
					},
					"indices":5,
					"material":1
				}
			]
		},
		{
			"name":"Mesh_Skin1_0",
			"primitives":[
				{
					"attributes":{
						"POSITION":6,
						"NORMAL":7
					},
					"indices":8,
					"material":2
				}
			]
		},
		{
			"name":"Mesh_Wear_3_0",
			"primitives":[
				{
					"attributes":{
						"POSITION":9,
						"NORMAL":10
					},
					"indices":11,
					"material":3
				}
			]
		},
		{
			"name":"Mesh_Wear_4_0",
			"primitives":[
				{
					"attributes":{
						"POSITION":12,
						"NORMAL":13
					},
					"indices":14,
					"material":4
				}
			]
		},
		{
			"name":"Mesh_Wear_6_0",
			"primitives":[
				{
					"attributes":{
						"POSITION":15,
						"NORMAL":16
					},
					"indices":17,
					"material":5
				}
			]
		}
	],
	"accessors":[
		{
			"bufferView":0,
			"componentType":5126,
			"count":9,
			"max":[
				136.7356719970703,
				94.09307098388672,
				-50.74980163574219
			],
			"min":[
				108.00422668457031,
				55.49198913574219,
				-73.63327026367188
			],
			"type":"VEC3"
		},
		{
			"bufferView":1,
			"componentType":5126,
			"count":9,
			"type":"VEC3"
		},
		{
			"bufferView":2,
			"componentType":5123,
			"count":9,
			"type":"SCALAR"
		},
		{
			"bufferView":3,
			"componentType":5126,
			"count":168,
			"max":[
				155.40277099609375,
				7.026889801025391,
				-55.13541793823242
			],
			"min":[
				117.97639465332031,
				0.40050598978996277,
				-74.65323638916016
			],
			"type":"VEC3"
		},
		{
			"bufferView":4,
			"componentType":5126,
			"count":168,
			"type":"VEC3"
		},
		{
			"bufferView":5,
			"componentType":5123,
			"count":168,
			"type":"SCALAR"
		},
		{
			"bufferView":6,
			"componentType":5126,
			"count":285,
			"max":[
				157.57772827148438,
				130.29010009765625,
				-63.92617416381836
			],
			"min":[
				113.34138488769531,
				51.836143493652344,
				-80.4391860961914
			],
			"type":"VEC3"
		},
		{
			"bufferView":7,
			"componentType":5126,
			"count":285,
			"type":"VEC3"
		},
		{
			"bufferView":8,
			"componentType":5123,
			"count":285,
			"type":"SCALAR"
		},
		{
			"bufferView":9,
			"componentType":5126,
			"count":282,
			"max":[
				144.9815673828125,
				133.46397399902344,
				-65.3293228149414
			],
			"min":[
				126.25162506103516,
				99.095458984375,
				-82.8997802734375
			],
			"type":"VEC3"
		},
		{
			"bufferView":10,
			"componentType":5126,
			"count":282,
			"type":"VEC3"
		},
		{
			"bufferView":11,
			"componentType":5123,
			"count":282,
			"type":"SCALAR"
		},
		{
			"bufferView":12,
			"componentType":5126,
			"count":327,
			"max":[
				155.76885986328125,
				63.671409606933594,
				-50.74980163574219
			],
			"min":[
				116.3408203125,
				4.897950649261475,
				-79.8154067993164
			],
			"type":"VEC3"
		},
		{
			"bufferView":13,
			"componentType":5126,
			"count":327,
			"type":"VEC3"
		},
		{
			"bufferView":14,
			"componentType":5123,
			"count":327,
			"type":"SCALAR"
		},
		{
			"bufferView":15,
			"componentType":5126,
			"count":585,
			"max":[
				168.4781494140625,
				111.11351776123047,
				-50.74980163574219
			],
			"min":[
				103.9797592163086,
				57.77910614013672,
				-79.8154067993164
			],
			"type":"VEC3"
		},
		{
			"bufferView":16,
			"componentType":5126,
			"count":585,
			"type":"VEC3"
		},
		{
			"bufferView":17,
			"componentType":5123,
			"count":585,
			"type":"SCALAR"
		}
	],
	"bufferViews":[
		{
			"buffer":0,
			"byteLength":108,
			"byteOffset":0,
			"target":34962
		},
		{
			"buffer":0,
			"byteLength":108,
			"byteOffset":108,
			"target":34962
		},
		{
			"buffer":0,
			"byteLength":18,
			"byteOffset":216,
			"target":34963
		},
		{
			"buffer":0,
			"byteLength":2016,
			"byteOffset":236,
			"target":34962
		},
		{
			"buffer":0,
			"byteLength":2016,
			"byteOffset":2252,
			"target":34962
		},
		{
			"buffer":0,
			"byteLength":336,
			"byteOffset":4268,
			"target":34963
		},
		{
			"buffer":0,
			"byteLength":3420,
			"byteOffset":4604,
			"target":34962
		},
		{
			"buffer":0,
			"byteLength":3420,
			"byteOffset":8024,
			"target":34962
		},
		{
			"buffer":0,
			"byteLength":570,
			"byteOffset":11444,
			"target":34963
		},
		{
			"buffer":0,
			"byteLength":3384,
			"byteOffset":12016,
			"target":34962
		},
		{
			"buffer":0,
			"byteLength":3384,
			"byteOffset":15400,
			"target":34962
		},
		{
			"buffer":0,
			"byteLength":564,
			"byteOffset":18784,
			"target":34963
		},
		{
			"buffer":0,
			"byteLength":3924,
			"byteOffset":19348,
			"target":34962
		},
		{
			"buffer":0,
			"byteLength":3924,
			"byteOffset":23272,
			"target":34962
		},
		{
			"buffer":0,
			"byteLength":654,
			"byteOffset":27196,
			"target":34963
		},
		{
			"buffer":0,
			"byteLength":7020,
			"byteOffset":27852,
			"target":34962
		},
		{
			"buffer":0,
			"byteLength":7020,
			"byteOffset":34872,
			"target":34962
		},
		{
			"buffer":0,
			"byteLength":1170,
			"byteOffset":41892,
			"target":34963
		}
	],
	"buffers":[
		{
			"byteLength":43064,
			"uri":"OldWoman.bin"
		}
	]
}
