{
	"asset":{
		"generator":"Khronos glTF Blender I/O v4.5.47",
		"version":"2.0"
	},
	"scene":0,
	"scenes":[
		{
			"name":"Scene",
			"nodes":[
				0,
				1,
				2,
				3,
				4
			]
		}
	],
	"nodes":[
		{
			"mesh":0,
			"name":"WomanDefault"
		},
		{
			"mesh":1,
			"name":"WomanHair"
		},
		{
			"mesh":2,
			"name":"WomanPants"
		},
		{
			"mesh":3,
			"name":"WomanShirtShoes"
		},
		{
			"mesh":4,
			"name":"WomanSkin"
		}
	],
	"materials":[
		{
			"doubleSided":true,
			"name":"default2",
			"pbrMetallicRoughness":{
				"baseColorFactor":[
					0.5,
					0.5,
					0.5,
					1
				],
				"metallicFactor":0,
				"roughnessFactor":0.8942628502845764
			}
		},
		{
			"doubleSided":true,
			"name":"Hair1",
			"pbrMetallicRoughness":{
				"baseColorFactor":[
					0.25999999046325684,
					0.15686699748039246,
					0.039000000804662704,
					1
				],
				"metallicFactor":0,
				"roughnessFactor":0.6000000238418579
			}
		},
		{
			"doubleSided":true,
			"name":"Wear_4",
			"pbrMetallicRoughness":{
				"baseColorFactor":[
					0.1740799993276596,
					0.17807699739933014,
					0.2720000147819519,
					1
				],
				"metallicFactor":0,
				"roughnessFactor":0.6000000238418579
			}
		},
		{
			"doubleSided":true,
			"name":"Wear_3",
			"pbrMetallicRoughness":{
				"baseColorFactor":[
					0.7128900289535522,
					0.7217450141906738,
					0.8899999856948853,
					1
				],
				"metallicFactor":0,
				"roughnessFactor":0.6000000238418579
			}
		},
		{
			"doubleSided":true,
			"name":"Skin1",
			"pbrMetallicRoughness":{
				"baseColorFactor":[
					1,
					0.6790000200271606,
					0.7100620269775391,
					1
				],
				"metallicFactor":0,
				"roughnessFactor":0.6000000238418579
			}
		}
	],
	"meshes":[
		{
			"name":"Mesh_default2_0.005",
			"primitives":[
				{
					"attributes":{
						"POSITION":0,
						"NORMAL":1
					},
					"indices":2,
					"material":0
				}
			]
		},
		{
			"name":"Mesh_Hair1_0.005",
			"primitives":[
				{
					"attributes":{
						"POSITION":3,
						"NORMAL":4
					},
					"indices":5,
					"material":1
				}
			]
		},
		{
			"name":"Mesh_Wear_4_0.004",
			"primitives":[
				{
					"attributes":{
						"POSITION":6,
						"NORMAL":7
					},
					"indices":8,
					"material":2
				}
			]
		},
		{
			"name":"Mesh_Wear_3_0.005",
			"primitives":[
				{
					"attributes":{
						"POSITION":9,
						"NORMAL":10
					},
					"indices":11,
					"material":3
				}
			]
		},
		{
			"name":"Mesh_Skin1_0.005",
			"primitives":[
				{
					"attributes":{
						"POSITION":12,
						"NORMAL":13
					},
					"indices":14,
					"material":4
				}
			]
		}
	],
	"accessors":[
		{
			"bufferView":0,
			"componentType":5126,
			"count":9,
			"max":[
				-16.964935302734375,
				108.48477172851562,
				-60.991973876953125
			],
			"min":[
				-29.01211166381836,
				67.55233764648438,
				-71.80423736572266
			],
			"type":"VEC3"
		},
		{
			"bufferView":1,
			"componentType":5126,
			"count":9,
			"type":"VEC3"
		},
		{
			"bufferView":2,
			"componentType":5123,
			"count":9,
			"type":"SCALAR"
		},
		{
			"bufferView":3,
			"componentType":5126,
			"count":282,
			"max":[
				-8.094663619995117,
				146.75973510742188,
				-65.38203430175781
			],
			"min":[
				-30.420156478881836,
				100.57852172851562,
				-85.9237289428711
			],
			"type":"VEC3"
		},
		{
			"bufferView":4,
			"componentType":5126,
			"count":282,
			"type":"VEC3"
		},
		{
			"bufferView":5,
			"componentType":5123,
			"count":282,
			"type":"SCALAR"
		},
		{
			"bufferView":6,
			"componentType":5126,
			"count":327,
			"max":[
				-2.636765956878662,
				74.01520538330078,
				-60.991973876953125
			],
			"min":[
				-33.02200698852539,
				5.221467018127441,
				-83.77970123291016
			],
			"type":"VEC3"
		},
		{
			"bufferView":7,
			"componentType":5126,
			"count":327,
			"type":"VEC3"
		},
		{
			"bufferView":8,
			"componentType":5123,
			"count":327,
			"type":"SCALAR"
		},
		{
			"bufferView":9,
			"componentType":5126,
			"count":753,
			"max":[
				7.49177885055542,
				124.27986145019531,
				-51.587989807128906
			],
			"min":[
				-40.82610321044922,
				-0.04232024401426315,
				-83.77970123291016
			],
			"type":"VEC3"
		},
		{
			"bufferView":10,
			"componentType":5126,
			"count":753,
			"type":"VEC3"
		},
		{
			"bufferView":11,
			"componentType":5123,
			"count":753,
			"type":"SCALAR"
		},
		{
			"bufferView":12,
			"componentType":5126,
			"count":285,
			"max":[
				7.49177885055542,
				145.5545196533203,
				-43.00102615356445
			],
			"min":[
				-26.136585235595703,
				61.01014709472656,
				-81.42132568359375
			],
			"type":"VEC3"
		},
		{
			"bufferView":13,
			"componentType":5126,
			"count":285,
			"type":"VEC3"
		},
		{
			"bufferView":14,
			"componentType":5123,
			"count":285,
			"type":"SCALAR"
		}
	],
	"bufferViews":[
		{
			"buffer":0,
			"byteLength":108,
			"byteOffset":0,
			"target":34962
		},
		{
			"buffer":0,
			"byteLength":108,
			"byteOffset":108,
			"target":34962
		},
		{
			"buffer":0,
			"byteLength":18,
			"byteOffset":216,
			"target":34963
		},
		{
			"buffer":0,
			"byteLength":3384,
			"byteOffset":236,
			"target":34962
		},
		{
			"buffer":0,
			"byteLength":3384,
			"byteOffset":3620,
			"target":34962
		},
		{
			"buffer":0,
			"byteLength":564,
			"byteOffset":7004,
			"target":34963
		},
		{
			"buffer":0,
			"byteLength":3924,
			"byteOffset":7568,
			"target":34962
		},
		{
			"buffer":0,
			"byteLength":3924,
			"byteOffset":11492,
			"target":34962
		},
		{
			"buffer":0,
			"byteLength":654,
			"byteOffset":15416,
			"target":34963
		},
		{
			"buffer":0,
			"byteLength":9036,
			"byteOffset":16072,
			"target":34962
		},
		{
			"buffer":0,
			"byteLength":9036,
			"byteOffset":25108,
			"target":34962
		},
		{
			"buffer":0,
			"byteLength":1506,
			"byteOffset":34144,
			"target":34963
		},
		{
			"buffer":0,
			"byteLength":3420,
			"byteOffset":35652,
			"target":34962
		},
		{
			"buffer":0,
			"byteLength":3420,
			"byteOffset":39072,
			"target":34962
		},
		{
			"buffer":0,
			"byteLength":570,
			"byteOffset":42492,
			"target":34963
		}
	],
	"buffers":[
		{
			"byteLength":43064,
			"uri":"Woman.bin"
		}
	]
}
